# Blender 3.1.0
# www.blender.org
mtllib box.mtl
o box
v -0.818700 2.065824 -0.093600
v -0.818700 -0.011176 -0.093600
v 0.743100 2.065824 0.090000
v 0.743100 -0.011176 0.090000
v -0.818700 -0.011500 -0.093600
v 0.743100 -2.088500 0.090000
v 0.743100 -0.011500 0.090000
v -0.818700 -2.088500 -0.093600
v 0.743100 -2.088500 -0.093600
v -0.818700 -2.088500 0.093600
v 0.743100 -2.088500 0.093600
v -0.818700 -0.011500 0.093600
v 0.743100 -0.011500 0.093600
v 0.743100 -0.011500 -0.093600
v 0.763500 -0.025200 0.093600
v 0.763500 -2.074800 0.093600
v 0.780700 -0.051800 0.093600
v 0.780700 -2.048200 0.093600
v 0.763500 -0.025200 -0.093600
v 0.763500 -2.074800 -0.093600
v 0.780700 -2.048200 -0.093600
v 0.780700 -0.051800 -0.093600
v 0.763500 0.002524 -0.093600
v 0.780700 2.025524 -0.093600
v 0.780700 0.029124 -0.093600
v 0.763500 2.052124 -0.093600
v 0.780700 2.025524 0.093600
v 0.763500 2.052124 0.093600
v 0.763500 0.002524 0.093600
v 0.780700 0.029124 0.093600
v 0.743100 -0.011176 -0.093600
v 0.743100 2.065824 -0.093600
v 0.743100 2.065824 0.093600
v 0.743100 -0.011176 0.093600
v -0.818700 -0.011176 0.093600
v -0.818700 2.065824 0.093600
vn -0.1168 -0.0000 0.9932
vn -0.0000 -1.0000 -0.0000
vn 0.1935 -0.9811 -0.0000
vn 0.3869 -0.9221 -0.0000
vn -1.0000 -0.0000 -0.0000
vn -0.0000 -0.0000 1.0000
vn 0.3869 0.9221 -0.0000
vn -0.0000 1.0000 -0.0000
vn 0.1935 0.9811 -0.0000
vn -0.0000 -0.0000 -1.0000
vn 0.7142 0.6999 -0.0000
vn 0.7142 0.7000 -0.0000
vn 0.7142 -0.7000 -0.0000
vn 0.7142 -0.6999 -0.0000
vn 0.9273 -0.3742 -0.0000
vn 0.9823 -0.1871 -0.0000
vn 0.9823 0.1871 -0.0000
vn 0.9274 0.3742 -0.0000
vn 0.7143 0.6999 -0.0000
vn 0.9273 0.3742 -0.0000
vn 0.9274 -0.3742 -0.0000
vn 0.7143 -0.6999 -0.0000
vt 0.485500 0.009700
vt 0.482200 0.998200
vt 0.480600 0.996900
vt 0.474900 0.035800
vt 0.485500 0.008700
vt 0.482200 0.037000
vt 0.474900 0.035800
vt 0.480600 0.042800
vt 0.484800 0.009700
vt 0.484800 0.008700
vt 0.485500 0.008700
vt 0.480600 0.042800
vt 0.474900 0.035800
vt 0.482200 0.037000
vt 0.484800 0.009700
vt 0.484800 0.008700
vt 0.485500 0.009700
vt 0.474900 0.035800
vt 0.480600 0.996900
vt 0.482200 0.998200
vt 0.003700 0.035800
vt 0.986500 0.003000
vt 0.011900 0.998200
vt 0.474900 0.002800
vt 0.519400 0.996900
vt 0.517100 0.998200
vt 0.003700 0.002800
vt 0.987400 0.998200
vt 0.986500 0.036000
vt 0.519400 0.042800
vt 0.517100 0.037000
vt 0.474900 0.002800
vt 0.003700 0.002800
vt 0.987400 0.037000
vt 0.529500 0.036000
vt 0.003700 0.035800
vt 0.529500 0.003000
vt 0.011900 0.037000
vt 0.993500 0.043300
vt 0.532500 0.036000
vt 0.993500 0.991800
vt 0.983500 0.036000
vt 0.998700 0.055600
vt 0.538400 0.036000
vt 0.998700 0.979500
vt 0.977700 0.036000
vt 0.532500 0.003000
vt 0.005800 0.043300
vt 0.983500 0.003000
vt 0.005800 0.991800
vt 0.977700 0.003000
vt 0.000600 0.979500
vt 0.538400 0.003000
vt 0.000600 0.055600
vt 0.005800 0.043300
vt 0.532500 0.003000
vt 0.000600 0.979500
vt 0.977700 0.003000
vt 0.000600 0.055600
vt 0.538400 0.003000
vt 0.005800 0.991800
vt 0.983500 0.003000
vt 0.977700 0.036000
vt 0.998700 0.979500
vt 0.983500 0.036000
vt 0.993500 0.991800
vt 0.532500 0.036000
vt 0.993500 0.043300
vt 0.538400 0.036000
vt 0.998700 0.055600
vt 0.529500 0.003000
vt 0.011900 0.037000
vt 0.003700 0.035800
vt 0.986500 0.003000
vt 0.011900 0.998200
vt 0.003700 0.035800
vt 0.986500 0.036000
vt 0.987400 0.998200
vt 0.003700 0.002800
vt 0.529500 0.036000
vt 0.003700 0.002800
vt 0.987400 0.037000
vt 0.474900 0.002800
vt 0.517100 0.037000
vt 0.519400 0.042800
vt 0.517100 0.998200
vt 0.519400 0.996900
vt 0.474900 0.002800
s 1
usemtl acmat_0
f 1/1/1 2/5/1 3/9/1
f 4/10/1 3/9/1 2/5/1
f 5/11/1 6/15/1 7/16/1
f 6/15/1 5/11/1 8/17/1
f 8/18/2 9/21/3 10/24/2
f 11/27/4 10/24/2 9/21/3
f 8/19/5 10/25/5 5/12/5
f 12/30/5 5/12/5 10/25/5
f 12/31/6 10/26/6 13/34/6
f 11/28/6 13/34/6 10/26/6
f 14/36/7 5/13/8 13/33/9
f 12/32/8 13/33/9 5/13/8
f 8/20/10 5/14/10 9/23/10
f 14/38/10 9/23/10 5/14/10
f 13/34/6 11/28/6 15/39/6
f 16/41/6 15/39/6 11/28/6
f 15/39/6 16/41/6 17/43/6
f 18/45/6 17/43/6 16/41/6
f 19/47/11 14/37/7 15/40/12
f 13/35/9 15/40/12 14/37/7
f 9/22/3 20/49/13 11/29/4
f 16/42/14 11/29/4 20/49/13
f 9/23/10 14/38/10 20/50/10
f 19/48/10 20/50/10 14/38/10
f 18/46/15 21/51/16 17/44/17
f 22/53/18 17/44/17 21/51/16
f 17/44/17 22/53/18 15/40/12
f 19/47/11 15/40/12 22/53/18
f 16/42/14 20/49/13 18/46/15
f 21/51/16 18/46/15 20/49/13
f 20/50/10 19/48/10 21/52/10
f 22/54/10 21/52/10 19/48/10
f 23/55/10 24/57/10 25/59/10
f 24/57/10 23/55/10 26/61/10
f 26/62/19 27/63/20 24/58/17
f 27/63/20 26/62/19 28/65/11
f 25/60/21 29/67/22 23/56/14
f 29/67/22 25/60/21 30/69/16
f 24/58/17 30/69/16 25/60/21
f 30/69/16 24/58/17 27/63/20
f 31/72/10 26/61/10 23/55/10
f 26/61/10 31/72/10 32/75/10
f 26/62/19 33/77/7 28/65/11
f 33/77/7 26/62/19 32/74/9
f 31/71/4 29/67/22 34/80/3
f 29/67/22 31/71/4 23/56/14
f 28/66/6 30/70/6 27/64/6
f 30/70/6 28/66/6 29/68/6
f 33/78/6 29/68/6 28/66/6
f 29/68/6 33/78/6 34/82/6
f 2/6/10 32/75/10 31/72/10
f 32/75/10 2/6/10 1/2/10
f 2/7/2 34/81/3 35/83/2
f 34/81/3 2/7/2 31/73/4
f 36/86/6 34/82/6 33/78/6
f 34/82/6 36/86/6 35/84/6
f 36/87/5 2/8/5 35/85/5
f 2/8/5 36/87/5 1/3/5
f 32/76/9 36/88/8 33/79/7
f 36/88/8 32/76/9 1/4/8
