# File produced by AccuTrans 3D
# Output decimal 4

g acmat_0

v 0.7431 2.0885 0.09
v -0.8187 2.0885 -0.0936
v -0.8187 0.0115 -0.0936
v 0.7431 0.0115 0.09
v 0.7807 0.0518 -0.0936
v 0.7807 2.0482 -0.0936
v 0.7635 2.0748 -0.0936
v 0.7635 0.0252 -0.0936
v 0.7807 0.0518 0.0936
v 0.7807 2.0482 0.0936
v 0.7635 0.0252 0.0936
v 0.7635 2.0748 0.0936
v 0.7431 0.0115 -0.0936
v 0.7431 0.0115 0.0936
v -0.8187 0.0115 0.0936
v -0.8187 2.0885 0.0936
v 0.7431 2.0885 0.0936
v 0.7431 2.0885 -0.0936
# 18 vertices

vt 0.0006 0.0556
vt 0.0006 0.9795
vt 0.0037 0.0028
vt 0.0037 0.0358
vt 0.0058 0.0433
vt 0.0058 0.9918
vt 0.0119 0.037
vt 0.0119 0.9982
vt 0.4749 0.0028
vt 0.4749 0.0358
vt 0.4806 0.0428
vt 0.4806 0.9969
vt 0.4822 0.037
vt 0.4822 0.9982
vt 0.4848 0.0087
vt 0.4848 0.0097
vt 0.4855 0.0087
vt 0.4855 0.0097
vt 0.5171 0.037
vt 0.5171 0.9982
vt 0.5194 0.0428
vt 0.5194 0.9969
vt 0.5295 0.003
vt 0.5295 0.036
vt 0.5325 0.003
vt 0.5325 0.036
vt 0.5384 0.003
vt 0.5384 0.036
vt 0.9777 0.003
vt 0.9777 0.036
vt 0.9835 0.003
vt 0.9835 0.036
vt 0.9865 0.003
vt 0.9865 0.036
vt 0.9874 0.037
vt 0.9874 0.9982
vt 0.9935 0.0433
vt 0.9935 0.9918
vt 0.9987 0.0556
vt 0.9987 0.9795
# 40 texture vertices

vn -1.0 0 0
vn -0.1168 0 0.9932
vn 0 0 1.0
vn 0 -1.0 0
vn 0 1.0 0
vn 0 0 -1.0
vn 0.1935 -0.9811 0
vn 0.1935 0.9811 0
vn 0.3869 -0.9221 0
vn 0.3869 0.9221 0
vn 0.7142 0.6999 0
vn 0.7142 -0.6999 0
vn 0.9273 0.3742 0
vn 0.9274 -0.3742 0
vn 0.9823 0.1871 0
vn 0.9823 -0.1871 0
# 16 vertex normals

s off

usemtl acmat_0

f 2/18/2 3/17/2 1/16/2
f 4/15/2 1/16/2 3/17/2
f 8/5/6 6/2/6 5/1/6
f 6/2/6 8/5/6 7/6/6
f 7/31/11 10/30/13 6/29/15
f 10/30/13 7/31/11 12/32/11
f 5/27/14 11/26/12 8/25/12
f 11/26/12 5/27/14 9/28/16
f 6/29/15 9/28/16 5/27/14
f 9/28/16 6/29/15 10/30/13
f 13/7/6 7/6/6 8/5/6
f 7/6/6 13/7/6 18/8/6
f 7/31/11 17/34/10 12/32/11
f 17/34/10 7/31/11 18/33/8
f 13/23/9 11/26/12 14/24/7
f 11/26/12 13/23/9 8/25/12
f 12/38/3 9/39/3 10/40/3
f 9/39/3 12/38/3 11/37/3
f 17/36/3 11/37/3 12/38/3
f 11/37/3 17/36/3 14/35/3
f 3/13/6 18/8/6 13/7/6
f 18/8/6 3/13/6 2/14/6
f 3/10/4 14/3/7 15/9/4
f 14/3/7 3/10/4 13/4/9
f 16/20/3 14/35/3 17/36/3
f 14/35/3 16/20/3 15/19/3
f 16/22/1 3/11/1 15/21/1
f 3/11/1 16/22/1 2/12/1
f 18/4/8 16/9/5 17/3/10
f 16/9/5 18/4/8 2/10/5
# 30 faces
