# File produced by AccuTrans 3D
# Output decimal 4

g acmat_0

v -0.8133 0.009 -0.077
v -0.8133 1.559 -0.077
v 0.7367 1.559 -0.077
v 0.7367 0.009 -0.077
v 0.7366 0.0089 -0.077
v 0.7366 1.5589 -0.077
v -0.8134 0.0089 -0.077
v -0.8134 1.5589 -0.077
v 0.7367 0.009 0.0771
v 0.7367 1.559 0.0771
v -0.8133 1.559 0.0771
v -0.8133 0.009 0.0771
# 12 vertices

vt 0.0021 0.0462
vt 0.0021 0.9902
vt 0.0027 0.0041
vt 0.0026 0.0411
vt 0.4761 0.0462
vt 0.4761 0.9902
vt 0.482 0.0041
vt 0.482 0.0411
vt 0.5176 0.0041
vt 0.5176 0.0411
vt 0.5251 0.0462
vt 0.5251 0.9902
vt 0.9984 0.0041
vt 0.9984 0.0411
vt 0.9984 0.0469
vt 0.9984 0.9902
# 16 texture vertices

vn -1.0 0 0.0006
vn 0 1.0 -0.0006
vn 0 0 1.0
vn 0 -1.0 0.0006
vn 0 0 -1.0
vn 1.0 0 -0.0006
# 6 vertex normals

s off

usemtl acmat_0

f 1/5/5 2/6/5 4/1/5
f 3/2/5 4/1/5 2/6/5
f 11/12/3 9/15/3 10/16/3
f 9/15/3 11/12/3 12/11/3
f 9/9/6 6/14/6 10/13/6
f 6/14/6 9/9/6 5/10/6
f 6/14/2 11/9/2 10/13/2
f 11/9/2 6/14/2 8/10/2
f 8/6/1 12/11/1 11/12/1
f 12/11/1 8/6/1 7/5/1
f 7/4/4 9/7/4 12/3/4
f 9/7/4 7/4/4 5/8/4
# 12 faces
