# Blender 3.1.0
# www.blender.org
mtllib boxpsp.mtl
o boxpsp
v -0.738700 -2.419700 -0.084200
v 0.666900 -2.419700 -0.084200
v -0.738700 -2.419700 0.084200
v 0.666900 -2.419700 0.084200
v -0.738700 -0.010400 -0.084200
v -0.738700 -0.010400 0.084200
v 0.666900 -0.010400 0.084200
v 0.666900 -0.010400 -0.084200
v 0.685300 -0.022700 0.084200
v 0.685300 -2.407300 0.084200
v 0.700700 -0.046700 0.084200
v 0.700700 -2.383400 0.084200
v 0.685300 -0.022700 -0.084200
v 0.685300 -2.407300 -0.084200
v 0.700700 -2.383400 -0.084200
v 0.700700 -0.046700 -0.084200
v 0.685300 0.002086 -0.084200
v 0.700700 2.362786 -0.084200
v 0.700700 0.025986 -0.084200
v 0.685300 2.386686 -0.084200
v 0.700700 2.362786 0.084200
v 0.685300 2.386686 0.084200
v 0.685300 0.002086 0.084200
v 0.700700 0.025986 0.084200
v 0.666900 -0.010314 -0.084200
v 0.666900 2.399086 -0.084200
v 0.666900 2.399086 0.084200
v 0.666900 -0.010314 0.084200
v -0.738700 -0.010314 -0.084200
v -0.738700 2.399086 -0.084200
v -0.738700 -0.010314 0.084200
v -0.738700 2.399086 0.084200
vn -0.0000 -1.0000 -0.0000
vn 0.1935 -0.9811 -0.0000
vn 0.3869 -0.9221 -0.0000
vn -1.0000 -0.0000 -0.0000
vn -0.0000 -0.0000 1.0000
vn 0.3869 0.9221 -0.0000
vn -0.0000 1.0000 -0.0000
vn 0.1935 0.9811 -0.0000
vn -0.0000 -0.0000 -1.0000
vn 0.7142 0.7000 -0.0000
vn 0.7142 0.6999 -0.0000
vn 0.7144 -0.6998 -0.0000
vn 0.7141 -0.7000 -0.0000
vn 0.9273 -0.3742 -0.0000
vn 0.9823 -0.1871 -0.0000
vn 0.9823 0.1871 -0.0000
vn 0.9274 0.3742 -0.0000
vn 0.7144 0.6998 -0.0000
vn 0.9273 0.3742 -0.0000
vn 0.7141 0.7000 -0.0000
vn 0.9274 -0.3742 -0.0000
vt 0.474900 0.035800
vt 0.465200 0.996900
vt 0.468100 0.998200
vt 0.003700 0.035800
vt 0.986500 0.003000
vt 0.011900 0.998200
vt 0.474900 0.002800
vt 0.534800 0.996900
vt 0.530600 0.998200
vt 0.003700 0.002800
vt 0.987400 0.998200
vt 0.986500 0.036000
vt 0.465200 0.044000
vt 0.474900 0.035800
vt 0.468100 0.038200
vt 0.534800 0.044000
vt 0.530600 0.038200
vt 0.474900 0.002800
vt 0.003700 0.002800
vt 0.987400 0.038200
vt 0.529500 0.036000
vt 0.003700 0.035800
vt 0.529500 0.003000
vt 0.011900 0.038200
vt 0.993500 0.044500
vt 0.532500 0.036000
vt 0.993500 0.991800
vt 0.983500 0.036000
vt 0.998700 0.056800
vt 0.538400 0.036000
vt 0.998700 0.979500
vt 0.977700 0.036000
vt 0.532500 0.003000
vt 0.005800 0.044500
vt 0.983500 0.003000
vt 0.005800 0.991800
vt 0.977700 0.003000
vt 0.000600 0.979500
vt 0.538400 0.003000
vt 0.000600 0.056800
vt 0.005800 0.044500
vt 0.532500 0.003000
vt 0.000600 0.979500
vt 0.977700 0.003000
vt 0.000600 0.056800
vt 0.538400 0.003000
vt 0.005800 0.991800
vt 0.983500 0.003000
vt 0.977700 0.036000
vt 0.998700 0.979500
vt 0.983500 0.036000
vt 0.993500 0.991800
vt 0.532500 0.036000
vt 0.993500 0.044500
vt 0.538400 0.036000
vt 0.998700 0.056800
vt 0.529500 0.003000
vt 0.011900 0.038200
vt 0.003700 0.035800
vt 0.986500 0.003000
vt 0.011900 0.998200
vt 0.003700 0.035800
vt 0.986500 0.036000
vt 0.987400 0.998200
vt 0.003700 0.002800
vt 0.529500 0.036000
vt 0.003700 0.002800
vt 0.987400 0.038200
vt 0.468100 0.038200
vt 0.474900 0.035800
vt 0.465200 0.044000
vt 0.468100 0.998200
vt 0.465200 0.996900
vt 0.474900 0.035800
vt 0.474900 0.002800
vt 0.530600 0.038200
vt 0.534800 0.044000
vt 0.530600 0.998200
vt 0.534800 0.996900
vt 0.474900 0.002800
s 1
usemtl acmat_0.002
f 1/1/1 2/4/2 3/7/1
f 4/10/3 3/7/1 2/4/2
f 1/2/4 3/8/4 5/13/4
f 6/16/4 5/13/4 3/8/4
f 6/17/5 3/9/5 7/20/5
f 4/11/5 7/20/5 3/9/5
f 8/22/6 5/14/7 7/19/8
f 6/18/7 7/19/8 5/14/7
f 1/3/9 5/15/9 2/6/9
f 8/24/9 2/6/9 5/15/9
f 7/20/5 4/11/5 9/25/5
f 10/27/5 9/25/5 4/11/5
f 9/25/5 10/27/5 11/29/5
f 12/31/5 11/29/5 10/27/5
f 13/33/10 8/23/6 9/26/11
f 7/21/8 9/26/11 8/23/6
f 2/5/2 14/35/12 4/12/3
f 10/28/13 4/12/3 14/35/12
f 2/6/9 8/24/9 14/36/9
f 13/34/9 14/36/9 8/24/9
f 12/32/14 15/37/15 11/30/16
f 16/39/17 11/30/16 15/37/15
f 11/30/16 16/39/17 9/26/11
f 13/33/10 9/26/11 16/39/17
f 10/28/13 14/35/12 12/32/14
f 15/37/15 12/32/14 14/35/12
f 14/36/9 13/34/9 15/38/9
f 16/40/9 15/38/9 13/34/9
f 17/41/9 18/43/9 19/45/9
f 18/43/9 17/41/9 20/47/9
f 20/48/18 21/49/19 18/44/16
f 21/49/19 20/48/18 22/51/20
f 19/46/21 23/53/12 17/42/12
f 23/53/12 19/46/21 24/55/15
f 18/44/16 24/55/15 19/46/21
f 24/55/15 18/44/16 21/49/19
f 25/58/9 20/47/9 17/41/9
f 20/47/9 25/58/9 26/61/9
f 20/48/18 27/63/6 22/51/20
f 27/63/6 20/48/18 26/60/8
f 25/57/3 23/53/12 28/66/2
f 23/53/12 25/57/3 17/42/12
f 22/52/5 24/56/5 21/50/5
f 24/56/5 22/52/5 23/54/5
f 27/64/5 23/54/5 22/52/5
f 23/54/5 27/64/5 28/68/5
f 29/69/9 26/61/9 25/58/9
f 26/61/9 29/69/9 30/72/9
f 29/70/1 28/67/2 31/75/1
f 28/67/2 29/70/1 25/59/3
f 32/78/5 28/68/5 27/64/5
f 28/68/5 32/78/5 31/76/5
f 32/79/4 29/71/4 31/77/4
f 29/71/4 32/79/4 30/73/4
f 26/62/8 32/80/7 27/65/6
f 32/80/7 26/62/8 30/74/7
