# Blender 3.1.0
# www.blender.org
mtllib boxpsx.mtl
o boxpsx
v 0.736600 -0.008900 -0.077000
v -0.813400 -0.008900 -0.077000
v 0.736700 -0.009000 0.077100
v -0.813300 -0.009000 0.077100
v -0.813400 -1.558900 -0.077000
v -0.813300 -1.559000 0.077100
v 0.736600 -1.558900 -0.077000
v 0.736700 -1.559000 0.077100
v -0.813300 -1.559000 -0.077000
v 0.736700 -0.009000 -0.077000
v 0.736700 -1.559000 -0.077000
v -0.813300 -0.009000 -0.077000
v 0.736700 -0.009997 0.077100
v -0.813400 -0.010097 -0.077000
v 0.736600 -0.010097 -0.077000
v -0.813300 -0.009997 0.077100
v -0.813400 1.539903 -0.077000
v -0.813300 1.540003 0.077100
v 0.736600 1.539903 -0.077000
v 0.736700 1.540003 0.077100
v 0.736700 1.540003 -0.077000
v 0.736700 -0.009997 -0.077000
v -0.813300 1.540003 -0.077000
v -0.813300 -0.009997 -0.077000
vn -0.0000 1.0000 0.0006
vn -1.0000 -0.0000 0.0006
vn -0.0000 -1.0000 -0.0007
vn -0.0000 -1.0000 -0.0006
vn 1.0000 -0.0000 -0.0006
vn -0.0000 -0.0000 1.0000
vn -0.0000 -0.0000 -1.0000
vn -0.0000 -1.0000 0.0006
vn -0.0000 1.0000 -0.0007
vn -0.0000 1.0000 -0.0006
vt 0.482000 0.041100
vt 0.517600 0.041100
vt 0.002600 0.041100
vt 0.476100 0.046200
vt 0.482000 0.004100
vt 0.517600 0.004100
vt 0.998400 0.046900
vt 0.002700 0.004100
vt 0.525100 0.046200
vt 0.476100 0.990200
vt 0.517600 0.041100
vt 0.517600 0.004100
vt 0.525100 0.990200
vt 0.998400 0.041100
vt 0.998400 0.004100
vt 0.998400 0.990200
vt 0.476100 0.990200
vt 0.002100 0.046200
vt 0.002100 0.990200
vt 0.476100 0.046200
vt 0.482000 0.004100
vt 0.517600 0.004100
vt 0.998400 0.046900
vt 0.002600 0.041100
vt 0.476100 0.046200
vt 0.482000 0.041100
vt 0.517600 0.041100
vt 0.002700 0.004100
vt 0.525100 0.046200
vt 0.476100 0.990200
vt 0.517600 0.041100
vt 0.517600 0.004100
vt 0.525100 0.990200
vt 0.998400 0.041100
vt 0.998400 0.004100
vt 0.998400 0.990200
vt 0.002100 0.990200
vt 0.002100 0.046200
vt 0.476100 0.990200
vt 0.476100 0.046200
s 1
usemtl acmat_0.004
f 1/1/1 2/3/1 3/5/1
f 4/8/1 3/5/1 2/3/1
f 2/4/2 5/10/2 4/9/2
f 6/13/2 4/9/2 5/10/2
f 5/11/3 7/14/3 6/12/3
f 8/15/4 6/12/4 7/14/4
f 1/2/5 3/6/5 7/14/5
f 8/15/5 7/14/5 3/6/5
f 4/9/6 6/13/6 3/7/6
f 8/16/6 3/7/6 6/13/6
f 9/17/7 10/18/7 11/19/7
f 10/18/7 9/17/7 12/20/7
f 13/21/8 14/24/8 15/26/8
f 14/24/8 13/21/8 16/28/8
f 16/29/2 17/30/2 14/25/2
f 17/30/2 16/29/2 18/33/2
f 18/32/9 19/34/10 17/31/9
f 19/34/10 18/32/9 20/35/10
f 19/34/5 13/22/5 15/27/5
f 13/22/5 19/34/5 20/35/5
f 13/23/6 18/33/6 16/29/6
f 18/33/6 13/23/6 20/36/6
f 21/37/7 22/38/7 23/39/7
f 24/40/7 23/39/7 22/38/7
