# File produced by AccuTrans 3D
# Output decimal 4

g acmat_0

v 0.6669 2.4225 -0.0842
v 0.6669 2.4225 0.0842
v -0.7387 2.4225 0.0842
v -0.7387 2.4225 -0.0842
v -0.7387 0.0132 -0.0842
v -0.7387 0.0132 0.0842
v 0.6669 0.0132 0.0842
v 0.6669 0.0132 -0.0842
v 0.6853 2.4102 0.0842
v 0.6853 0.0256 0.0842
v 0.7007 2.3862 0.0842
v 0.7007 0.0495 0.0842
v 0.6853 0.0256 -0.0842
v 0.6853 2.4102 -0.0842
v 0.7007 2.3862 -0.0842
v 0.7007 0.0495 -0.0842
# 16 vertices

vt 0.0006 0.0568
vt 0.0006 0.9795
vt 0.0037 0.0028
vt 0.0037 0.0358
vt 0.0058 0.0445
vt 0.0058 0.9918
vt 0.0119 0.0382
vt 0.0119 0.9982
vt 0.4652 0.044
vt 0.4652 0.9969
vt 0.4681 0.0382
vt 0.4681 0.9982
vt 0.4749 0.0028
vt 0.4749 0.0358
vt 0.5295 0.003
vt 0.5295 0.036
vt 0.5306 0.0382
vt 0.5306 0.9982
vt 0.5325 0.003
vt 0.5325 0.036
vt 0.5348 0.044
vt 0.5348 0.9969
vt 0.5384 0.003
vt 0.5384 0.036
vt 0.9777 0.003
vt 0.9777 0.036
vt 0.9835 0.003
vt 0.9835 0.036
vt 0.9865 0.003
vt 0.9865 0.036
vt 0.9874 0.0382
vt 0.9874 0.9982
vt 0.9935 0.0445
vt 0.9935 0.9918
vt 0.9987 0.0568
vt 0.9987 0.9795
# 36 texture vertices

vn -1.0 0 0
vn 0 0 1.0
vn 0 -1.0 0
vn 0 1.0 0
vn 0 0 -1.0
vn 0.1935 0.9811 0
vn 0.1935 -0.9811 0
vn 0.3869 0.9221 0
vn 0.3869 -0.9221 0
vn 0.7142 0.6999 0
vn 0.7142 -0.6999 0
vn 0.9274 0.3742 0
vn 0.9274 -0.3742 0
vn 0.9823 0.1871 0
vn 0.9823 -0.1871 0
# 15 vertex normals

s off

usemtl acmat_0

f 3/13/4 1/4/6 4/14/4
f 1/4/6 3/13/4 2/3/8
f 5/9/1 3/22/1 4/10/1
f 3/22/1 5/9/1 6/21/1
f 7/31/2 3/18/2 6/17/2
f 3/18/2 7/31/2 2/32/2
f 7/3/7 5/14/3 8/4/9
f 5/14/3 7/3/7 6/13/3
f 1/8/5 5/11/5 4/12/5
f 5/11/5 1/8/5 8/7/5
f 10/33/2 2/32/2 7/31/2
f 2/32/2 10/33/2 9/34/2
f 12/35/2 9/34/2 10/33/2
f 9/34/2 12/35/2 11/36/2
f 10/20/11 8/15/9 13/19/11
f 8/15/9 10/20/11 7/16/7
f 2/30/8 14/27/10 1/29/6
f 14/27/10 2/30/8 9/28/10
f 14/6/5 8/7/5 1/8/5
f 8/7/5 14/6/5 13/5/5
f 12/24/15 15/25/14 11/26/12
f 15/25/14 12/24/15 16/23/13
f 10/20/11 16/23/13 12/24/15
f 16/23/13 10/20/11 13/19/11
f 11/26/12 14/27/10 9/28/10
f 14/27/10 11/26/12 15/25/14
f 15/2/5 13/5/5 14/6/5
f 13/5/5 15/2/5 16/1/5
# 28 faces
