# Blender 3.1.0
# www.blender.org
mtllib cover_square.mtl
o cover_square
v -0.813300 1.537619 0.100100
v 0.736700 -0.012381 0.100100
v 0.736700 1.537619 0.100100
v -0.813300 -0.012381 0.100100
v 0.736600 1.537519 -0.100000
v 0.736600 -0.012481 -0.100000
v -0.813400 1.537519 -0.100000
v -0.813400 -0.012481 -0.100000
v 0.736600 -0.012700 -0.100000
v -0.813400 -0.012700 -0.100000
v 0.736700 -0.012800 0.100100
v -0.813300 -0.012800 0.100100
v -0.813400 -1.562700 -0.100000
v -0.813300 -1.562800 0.100100
v 0.736600 -1.562700 -0.100000
v 0.736700 -1.562800 0.100100
vn -0.0000 -0.0000 1.0000
vn 1.0000 -0.0000 -0.0005
vn -0.0000 1.0000 -0.0005
vn -1.0000 -0.0000 0.0005
vn -0.0000 -1.0000 0.0005
vn -0.0000 1.0000 0.0005
vn -0.0000 -1.0000 -0.0005
vt 0.050000 1.000000
vt 0.000000 0.000000
vt 0.950000 0.000400
vt 0.000000 0.000000
vt 0.950000 1.000000
vt 0.000000 0.000000
vt 0.050000 0.000400
vt 0.000000 0.000000
vt 0.000000 0.000000
vt 0.000000 0.000000
vt 0.000000 0.000000
vt 0.000000 0.000000
vt 0.000000 0.000000
vt 0.000000 0.000000
vt 0.000000 0.000000
vt 0.950000 0.000400
vt 0.000000 0.000000
vt 0.050000 0.000400
vt 0.000000 0.000000
vt 0.000000 0.000000
vt 0.050000 1.000000
vt 0.000000 0.000000
vt 0.000000 0.000000
vt 0.950000 1.000000
s 1
usemtl acmat_0.008
f 1/1/1 2/3/1 3/5/1
f 2/3/1 1/1/1 4/7/1
f 2/4/2 5/9/2 3/6/2
f 5/9/2 2/4/2 6/10/2
f 5/9/3 1/2/3 3/6/3
f 1/2/3 5/9/3 7/11/3
f 7/11/4 4/8/4 1/2/4
f 4/8/4 7/11/4 8/12/4
f 8/12/5 2/4/5 4/8/5
f 2/4/5 8/12/5 6/10/5
f 9/13/6 10/14/6 11/15/6
f 12/17/6 11/15/6 10/14/6
f 10/14/4 13/19/4 12/17/4
f 14/20/4 12/17/4 13/19/4
f 13/19/7 15/22/7 14/20/7
f 16/23/7 14/20/7 15/22/7
f 9/13/2 11/15/2 15/22/2
f 16/23/2 15/22/2 11/15/2
f 12/18/1 14/21/1 11/16/1
f 16/24/1 11/16/1 14/21/1
