# File produced by AccuTrans 3D
# Output decimal 4

g acmat_0_011

v -0.7821 0.0086 -0.0898
v -0.7792 2.1075 0.0929
v -0.7821 2.1075 -0.0898
v -0.7792 0.0086 0.0929
v 0.7838 0.0086 0.0974
v 0.7838 2.1075 0.0974
v 0.7818 0.0087 -0.0896
v 0.7818 2.1076 -0.0896
# 8 vertices

vt 0 0
vt 0 1.0
vt 0.0107 0
vt 0.0107 1.0
vt 0.988 0.0001
vt 0.988 1.0
vt 0.9883 0
vt 0.9883 1.0
vt 0.9989 0
vt 0.9989 0.9999
# 10 texture vertices

vn -0.9999 0 0.0105
vn -0.9999 0 0.0156
vn -0.0029 0 1.0
# 3 vertex normals

s off

usemtl acmat_0_011

f 5/9/1 6/10/1 7/5/1
f 6/10/1 8/6/1 7/5/1
f 1/1/2 2/4/2 3/2/2
f 2/4/2 1/1/2 4/3/2
f 5/7/3 2/4/3 4/3/3
f 2/4/3 5/7/3 6/8/3
# 6 faces
