# Blender 3.1.0
# www.blender.org
mtllib coverpsp.mtl
o coverpsp
v -0.738700 -2.243000 -0.084200
v -0.736200 -2.243000 0.080100
v -0.738700 -0.057100 -0.084200
v -0.736200 -0.057100 0.080100
v 0.663200 -0.057100 0.084200
v 0.663200 -2.243000 0.084200
v -0.736200 2.225586 0.080100
v 0.663200 0.039786 0.084200
v 0.663200 2.225586 0.084200
v -0.736200 0.039786 0.080100
v -0.738700 0.039786 -0.084200
v -0.738700 2.225586 -0.084200
vn -0.9999 -0.0000 0.0152
vn -0.0029 -0.0000 1.0000
vt 0.002500 0.936400
vt 0.013100 0.936400
vt 0.002500 0.000400
vt 0.013100 0.000400
vt 0.992700 0.000400
vt 0.992700 0.936400
vt 0.013100 0.936400
vt 0.992700 0.000400
vt 0.992700 0.936400
vt 0.013100 0.000400
vt 0.002500 0.000400
vt 0.002500 0.936400
s 1
usemtl acmat_0.010
f 1/1/1 2/2/1 3/3/1
f 4/4/1 3/3/1 2/2/1
f 4/4/2 2/2/2 5/5/2
f 6/6/2 5/5/2 2/2/2
f 7/7/2 8/8/2 9/9/2
f 8/8/2 7/7/2 10/10/2
f 7/7/1 11/11/1 10/10/1
f 11/11/1 7/7/1 12/12/1
