# Blender 3.4.1
# www.blender.org
mtllib covermiddle.mtl
o covermiddle
v 0.783800 -0.006527 0.097400
v 0.783800 1.805510 0.097400
v 0.781800 -0.006440 -0.089600
v 0.783800 -1.816354 0.097400
v 0.783800 -0.005525 0.097400
v 0.781800 -1.816267 -0.089600
v 0.781800 1.805596 -0.089600
v 0.781800 -0.005525 -0.089600
v -0.782100 -0.006527 -0.089800
v -0.779200 1.805510 0.092900
v -0.782100 1.805510 -0.089800
v -0.779200 -0.006527 0.092900
v -0.779200 -1.816354 0.092900
v -0.779200 -0.005525 0.092900
v -0.782100 -0.005525 -0.089800
v -0.782100 -1.816354 -0.089800
vn -0.9999 -0.0000 0.0107
vn -0.9999 -0.0000 0.0159
vn -0.0029 -0.0000 1.0000
vt 0.998900 0.000000
vt 0.988300 0.000000
vt 0.998900 0.999900
vt 0.988300 1.000000
vt 0.988000 0.000100
vt 0.988000 1.000000
vt 0.988300 1.000000
vt 0.988000 0.000100
vt 0.988300 0.000000
vt 0.998900 0.999900
vt 0.988000 1.000000
vt 0.998900 0.000000
vt 0.000000 0.000000
vt 0.010700 1.000000
vt 0.000000 1.000000
vt 0.010700 0.000000
vt 0.010700 1.000000
vt 0.010700 0.000000
vt 0.000000 0.000000
vt 0.000000 1.000000
s 1
usemtl acmat_0_003.006
f 1/1/1 2/3/1 3/5/1
f 4/6/1 5/8/1 6/10/1
f 2/3/1 7/11/1 3/5/1
f 5/8/1 8/12/1 6/10/1
f 9/13/2 10/14/2 11/15/2
f 10/14/2 9/13/2 12/16/2
f 1/2/3 10/14/3 12/16/3
f 10/14/3 1/2/3 2/4/3
f 4/7/3 5/9/3 13/17/3
f 14/18/3 13/17/3 5/9/3
f 14/18/2 15/19/2 13/17/2
f 16/20/2 13/17/2 15/19/2
