# File produced by AccuTrans 3D
# Output decimal 4

g acmat_0_003

v -0.5885 0.0122 -0.0953
v -0.5864 1.554 0.0873
v -0.5885 1.554 -0.0953
v -0.5864 0.0122 0.0873
v 0.5725 0.0122 0.0919
v 0.5725 1.554 0.0919
v 0.5711 0.0123 -0.0952
v 0.5711 1.5541 -0.0952
# 8 vertices

vt 0 0
vt 0 1.0
vt 0.0107 0
vt 0.0107 1.0
vt 0.9936 0.0001
vt 0.9936 1.0
vt 0.9948 0
vt 0.9948 1.0
vt 0.9989 0
vt 0.9989 0.9999
# 10 texture vertices

vn -1.0 0 0.0078
vn -0.9999 0 0.0116
vn -0.0039 0 1.0
# 3 vertex normals

s off

usemtl acmat_0_003

f 5/9/1 6/10/1 7/5/1
f 6/10/1 8/6/1 7/5/1
f 1/1/2 2/4/2 3/2/2
f 2/4/2 1/1/2 4/3/2
f 5/7/3 2/4/3 4/3/3
f 2/4/3 5/7/3 6/8/3
# 6 faces
