# Blender 3.4.1
# www.blender.org
mtllib covertall_noreflx.mtl
o covertall_noreflx
v -0.593038 0.008600 -0.089800
v -0.590839 2.107500 0.092900
v -0.593038 2.107500 -0.089800
v -0.590839 0.008600 0.092900
v 0.594327 0.008600 0.097400
v 0.594327 2.107500 0.097400
v 0.592811 0.008700 -0.089600
v 0.592811 2.107600 -0.089600
vn -1.0000 -0.0000 0.0081
vn -0.9999 -0.0000 0.0120
vn -0.0038 -0.0000 1.0000
vt 0.000000 0.000000
vt 0.010700 1.000000
vt 0.000000 1.000000
vt 0.010700 0.000000
vt 0.998900 0.000000
vt 0.988300 0.000000
vt 0.998900 0.999900
vt 0.988300 1.000000
vt 0.988000 0.000100
vt 0.988000 1.000000
s 0
usemtl acmat_0_011.004
f 5/5/1 6/7/1 7/9/1
f 6/7/1 8/10/1 7/9/1
f 1/1/2 2/2/2 3/3/2
f 2/2/2 1/1/2 4/4/2
f 5/6/3 2/2/3 4/4/3
f 2/2/3 5/6/3 6/8/3
