# Blender 3.1.0
# www.blender.org
mtllib covertape.mtl
o covertape
v 0.572500 -0.012420 0.091900
v 0.572500 1.529380 0.091900
v 0.571100 -0.012320 -0.095200
v 0.572500 -1.553000 0.091900
v 0.572500 -0.012300 0.091900
v 0.571100 -1.552900 -0.095200
v 0.571100 1.529480 -0.095200
v 0.571100 -0.012200 -0.095200
v -0.588500 -0.012420 -0.095300
v -0.586400 1.529380 0.087300
v -0.588500 1.529380 -0.095300
v -0.586400 -0.012420 0.087300
v -0.586400 -1.553000 0.087300
v -0.586400 -0.012300 0.087300
v -0.588500 -0.012300 -0.095300
v -0.588500 -1.553000 -0.095300
vn -1.0000 -0.0000 0.0078
vn -1.0000 -0.0000 0.0075
vn -0.9999 -0.0000 0.0115
vn -0.0040 -0.0000 1.0000
vt 0.998900 0.000000
vt 0.994800 0.000000
vt 0.998900 0.999900
vt 0.994800 1.000000
vt 0.993600 0.000100
vt 0.993600 1.000000
vt 0.994800 1.000000
vt 0.993600 0.000100
vt 0.994800 0.000000
vt 0.998900 0.999900
vt 0.993600 1.000000
vt 0.998900 0.000000
vt 0.000000 0.000000
vt 0.010700 1.000000
vt 0.000000 1.000000
vt 0.010700 0.000000
vt 0.010700 1.000000
vt 0.010700 0.000000
vt 0.000000 0.000000
vt 0.000000 1.000000
s 1
usemtl acmat_0_003.008
f 1/1/1 2/3/1 3/5/1
f 4/6/1 5/8/2 6/10/2
f 2/3/1 7/11/1 3/5/1
f 5/8/2 8/12/1 6/10/2
f 9/13/3 10/14/3 11/15/3
f 10/14/3 9/13/3 12/16/3
f 1/2/4 10/14/4 12/16/4
f 10/14/4 1/2/4 2/4/4
f 4/7/4 5/9/4 13/17/4
f 14/18/4 13/17/4 5/9/4
f 14/18/3 15/19/3 13/17/3
f 16/20/3 13/17/3 15/19/3
