# Blender 3.4.1
# www.blender.org
mtllib covernsnesjapan.mtl
o covernsnesjapan
v 0.733955 -0.008651 0.097400
v 0.733955 2.393188 0.097400
v 0.732082 -0.008537 -0.089600
v 0.733955 -2.407561 0.097400
v 0.733955 -0.007324 0.097400
v 0.732082 -2.407446 -0.089600
v 0.732082 2.393301 -0.089600
v 0.732082 -0.007324 -0.089600
v -0.732363 -0.008651 -0.089800
v -0.729648 2.393188 0.092900
v -0.732363 2.393188 -0.089800
v -0.729648 -0.008651 0.092900
v -0.729648 -2.407561 0.092900
v -0.729648 -0.007324 0.092900
v -0.732363 -0.007324 -0.089800
v -0.732363 -2.407561 -0.089800
vn -0.9999 -0.0000 0.0100
vn -0.9999 -0.0000 0.0149
vn -0.0031 -0.0000 1.0000
vt 0.998900 0.000000
vt 0.988300 0.000000
vt 0.998900 0.999900
vt 0.988300 1.000000
vt 0.988000 0.000100
vt 0.988000 1.000000
vt 0.988300 1.000000
vt 0.988000 0.000100
vt 0.988300 0.000000
vt 0.998900 0.999900
vt 0.988000 1.000000
vt 0.998900 0.000000
vt 0.000000 0.000000
vt 0.010700 1.000000
vt 0.000000 1.000000
vt 0.010700 0.000000
vt 0.010700 1.000000
vt 0.010700 0.000000
vt 0.000000 0.000000
vt 0.000000 1.000000
s 1
usemtl acmat_0_003.006
f 1/1/1 2/3/1 3/5/1
f 4/6/1 5/8/1 6/10/1
f 2/3/1 7/11/1 3/5/1
f 5/8/1 8/12/1 6/10/1
f 9/13/2 10/14/2 11/15/2
f 10/14/2 9/13/2 12/16/2
f 1/2/3 10/14/3 12/16/3
f 10/14/3 1/2/3 2/4/3
f 4/7/3 5/9/3 13/17/3
f 14/18/3 13/17/3 5/9/3
f 14/18/2 15/19/2 13/17/2
f 16/20/2 13/17/2 15/19/2
