# File produced by AccuTrans 3D
# Output decimal 4

g acmat_0_008

v -1.1295 0.0122 -0.0898
v -1.1254 1.554 0.0929
v -1.1295 1.554 -0.0898
v -1.1254 0.0122 0.0929
v 1.1319 0.0122 0.0974
v 1.1319 1.554 0.0974
v 1.1291 0.0123 -0.0896
v 1.1291 1.5541 -0.0896
# 8 vertices

vt 0 0
vt 0 1.0
vt 0.0107 0
vt 0.0107 1.0
vt 0.9936 0.0001
vt 0.9936 1.0
vt 0.9948 0
vt 0.9948 1.0
vt 0.9989 0
vt 0.9989 0.9999
# 10 texture vertices

vn -0.9999 0 0.0152
vn -0.9997 0 0.0226
vn -0.002 0 1.0
# 3 vertex normals

s off

usemtl acmat_0_008

f 5/9/1 6/10/1 7/5/1
f 6/10/1 8/6/1 7/5/1
f 1/1/2 2/4/2 3/2/2
f 2/4/2 1/1/2 4/3/2
f 5/7/3 2/4/3 4/3/3
f 2/4/3 5/7/3 6/8/3
# 6 faces
