# File produced by AccuTrans 3D
# Output decimal 4

g acmat_0

v -0.8187 0.0649 -0.0936
v -0.8187 1.8778 -0.0936
v -0.8159 1.8778 0.089
v -0.8159 0.0649 0.089
v 0.739 1.8778 0.0936
v 0.739 0.0649 0.0936
# 6 vertices

vt 0.0025 0.0004
vt 0.0025 0.9102
vt 0.0212 0.0004
vt 0.0212 0.9102
vt 0.9868 0.0004
vt 0.9868 0.9102
# 6 texture vertices

vn -0.9999 0 0.0153
vn -0.0029 0 1.0
# 2 vertex normals

s off

usemtl acmat_0

f 1/1/1 3/4/1 2/2/1
f 3/4/1 1/1/1 4/3/1
f 6/5/2 3/4/2 4/3/2
f 3/4/2 6/5/2 5/6/2
# 4 faces
