# File produced by AccuTrans 3D
# Output decimal 4

g acmat_0

v -0.7387 0.0633 -0.0842
v -0.7387 2.2491 -0.0842
v -0.7362 2.2491 0.0801
v -0.7362 0.0633 0.0801
v 0.6632 2.2491 0.0842
v 0.6632 0.0633 0.0842
# 6 vertices

vt 0.0025 0.0004
vt 0.0025 0.9364
vt 0.0131 0.0004
vt 0.0131 0.9364
vt 0.9927 0.0004
vt 0.9927 0.9364
# 6 texture vertices

vn -0.9999 0 0.0153
vn -0.0029 0 1.0
# 2 vertex normals

s off

usemtl acmat_0

f 1/1/1 3/4/1 2/2/1
f 3/4/1 1/1/1 4/3/1
f 6/5/2 3/4/2 4/3/2
f 3/4/2 6/5/2 5/6/2
# 4 faces
