# Blender 3.1.0
# www.blender.org
mtllib covern64.mtl
o covern64
v 1.131900 -0.012518 0.097400
v 1.131900 1.529283 0.097400
v 1.129100 -0.012417 -0.089600
v 1.131900 -1.553000 0.097400
v 1.131900 -0.012300 0.097400
v 1.129100 -1.552900 -0.089600
v 1.129100 1.529382 -0.089600
v 1.129100 -0.012200 -0.089600
v -1.129500 -0.012517 -0.089800
v -1.125400 1.529283 0.092900
v -1.129500 1.529283 -0.089800
v -1.125400 -0.012518 0.092900
v -1.125400 -1.553000 0.092900
v -1.125400 -0.012300 0.092900
v -1.129500 -0.012300 -0.089800
v -1.129500 -1.553000 -0.089800
vn -0.9999 -0.0000 0.0150
vn -0.9999 -0.0000 0.0153
vn -0.9999 -0.0000 0.0155
vn -0.9997 -0.0000 0.0228
vn -0.9997 -0.0000 0.0224
vn -0.0020 -0.0000 1.0000
vt 0.998900 0.000000
vt 0.994800 0.000000
vt 0.998900 0.999900
vt 0.994800 1.000000
vt 0.993600 0.000100
vt 0.993600 1.000000
vt 0.994800 1.000000
vt 0.993600 0.000100
vt 0.994800 0.000000
vt 0.998900 0.999900
vt 0.993600 1.000000
vt 0.998900 0.000000
vt 0.000000 0.000000
vt 0.010700 1.000000
vt 0.000000 1.000000
vt 0.010700 0.000000
vt 0.010700 1.000000
vt 0.010700 0.000000
vt 0.000000 0.000000
vt 0.000000 1.000000
s 1
usemtl acmat_0_003.004
f 1/1/1 2/3/1 3/5/1
f 4/6/2 5/8/1 6/10/1
f 2/3/1 7/11/1 3/5/1
f 5/8/1 8/12/3 6/10/1
f 9/13/4 10/14/4 11/15/5
f 10/14/4 9/13/4 12/16/5
f 1/2/6 10/14/6 12/16/6
f 10/14/6 1/2/6 2/4/6
f 4/7/6 5/9/6 13/17/6
f 14/18/6 13/17/6 5/9/6
f 14/18/5 15/19/5 13/17/5
f 16/20/5 13/17/5 15/19/5
