# Blender 3.1.0
# www.blender.org
mtllib coverpsx.mtl
o coverpsx
v 0.714700 -1.534300 0.073900
v 0.714700 -0.037300 0.073900
v -0.652600 -1.534300 0.073900
v -0.652600 -0.037300 0.073900
v -0.652600 1.515303 0.073900
v 0.714700 0.018303 0.073900
v 0.714700 1.515303 0.073900
v -0.652600 0.018303 0.073900
vn -0.0000 -0.0000 1.0000
vt 0.998100 0.996100
vt 0.998100 0.003900
vt 0.007700 0.996100
vt 0.007700 0.003900
vt 0.007700 0.996100
vt 0.998100 0.003900
vt 0.998100 0.996100
vt 0.007700 0.003900
s 1
usemtl acmat_0.012
f 1/1/1 2/2/1 3/3/1
f 4/4/1 3/3/1 2/2/1
f 5/5/1 6/6/1 7/7/1
f 6/6/1 5/5/1 8/8/1
