# Blender 3.1.0
# www.blender.org
mtllib cover.mtl
o cover
v -0.818700 0.042224 -0.093600
v -0.815900 1.855124 0.089000
v -0.818700 1.855124 -0.093600
v -0.815900 0.042224 0.089000
v 0.739000 0.042224 0.093600
v 0.739000 1.855124 0.093600
v 0.739000 -1.877800 0.093600
v 0.739000 -0.064900 0.093600
v -0.815900 -1.877800 0.089000
v -0.815900 -0.064900 0.089000
v -0.818700 -0.064900 -0.093600
v -0.818700 -1.877800 -0.093600
vn -0.9999 -0.0000 0.0153
vn -0.0030 -0.0000 1.0000
vt 0.002500 0.000400
vt 0.013000 0.904300
vt 0.002500 0.904300
vt 0.013000 0.000400
vt 0.986800 0.000400
vt 0.986800 0.904300
vt 0.986800 0.904300
vt 0.986800 0.000400
vt 0.013000 0.904300
vt 0.013000 0.000400
vt 0.002500 0.000400
vt 0.002500 0.904300
s 1
usemtl acmat_0.006
f 1/1/1 2/2/1 3/3/1
f 2/2/1 1/1/1 4/4/1
f 5/5/2 2/2/2 4/4/2
f 2/2/2 5/5/2 6/6/2
f 7/7/2 8/8/2 9/9/2
f 10/10/2 9/9/2 8/8/2
f 10/10/1 11/11/1 9/9/1
f 12/12/1 9/9/1 11/11/1
