# File produced by AccuTrans 3D
# Output decimal 4

g acmat_0_004

v -0.7748 0.0122 -0.0898
v -0.772 1.554 0.0929
v -0.7748 1.554 -0.0898
v -0.772 0.0122 0.0929
v 0.7764 0.0122 0.0974
v 0.7764 1.554 0.0974
v 0.7745 0.0123 -0.0896
v 0.7745 1.5541 -0.0896
# 8 vertices

vt 0 0
vt 0 1.0
vt 0.0107 0
vt 0.0107 1.0
vt 0.9753 0.0001
vt 0.9753 1.0
vt 0.9756 0
vt 0.9756 1.0
vt 0.9862 0
vt 0.9862 0.9999
# 10 texture vertices

vn -0.9999 0 0.0104
vn -0.9999 0 0.0155
vn -0.0029 0 1.0
# 3 vertex normals

s off

usemtl acmat_0_004

f 5/9/1 6/10/1 7/5/1
f 6/10/1 8/6/1 7/5/1
f 1/1/2 2/4/2 3/2/2
f 2/4/2 1/1/2 4/3/2
f 5/7/3 2/4/3 4/3/3
f 2/4/3 5/7/3 6/8/3
# 6 faces
