# Blender 3.4.1
# www.blender.org
mtllib covermiddle_noreflix.mtl
o covermiddle_noreflix
v -0.782100 0.007425 -0.089800
v -0.779200 1.819462 0.092900
v -0.782100 1.819462 -0.089800
v -0.779200 0.007425 0.092900
v 0.783800 0.007425 0.097400
v 0.783800 1.819462 0.097400
v 0.781800 0.007511 -0.089600
v 0.781800 1.819548 -0.089600
vn -0.9999 -0.0000 0.0107
vn -0.9999 -0.0000 0.0159
vn -0.0029 -0.0000 1.0000
vt 0.000000 0.000000
vt 0.010700 1.000000
vt 0.000000 1.000000
vt 0.010700 0.000000
vt 0.998900 0.000000
vt 0.988300 0.000000
vt 0.998900 0.999900
vt 0.988300 1.000000
vt 0.988000 0.000100
vt 0.988000 1.000000
s 0
usemtl acmat_0_011.004
f 5/5/1 6/7/1 7/9/1
f 6/7/1 8/10/1 7/9/1
f 1/1/2 2/2/2 3/3/2
f 2/2/2 1/1/2 4/4/2
f 5/6/3 2/2/3 4/4/3
f 2/2/3 5/6/3 6/8/3
