# File produced by AccuTrans 3D
# Output decimal 4

g acmat_0

v -0.8133 0.0051 0.1001
v -0.8133 1.5551 0.1001
v 0.7367 1.5551 0.1001
v 0.7367 0.0051 0.1001
v -0.8134 1.555 -0.1
v -0.8134 0.005 -0.1
v 0.7366 1.555 -0.1
v 0.7366 0.005 -0.1
# 8 vertices

vt 0 0
vt 0.05 0.0004
vt 0.05 1.0
vt 0.95 0.0004
vt 0.95 1.0
# 5 texture vertices

vn -1.0 0 0.0005
vn 0 1.0 -0.0005
vn 0 0 1.0
vn 0 -1.0 0.0005
vn 1.0 0 -0.0005
# 5 vertex normals

s off

usemtl acmat_0

f 4/1/4 6/1/4 8/1/4
f 6/1/4 4/1/4 1/1/4
f 1/1/1 5/1/1 6/1/1
f 5/1/1 1/1/1 2/1/1
f 2/1/2 7/1/2 5/1/2
f 7/1/2 2/1/2 3/1/2
f 7/1/5 4/1/5 8/1/5
f 4/1/5 7/1/5 3/1/5
f 4/4/3 2/3/3 1/2/3
f 2/3/3 4/4/3 3/5/3
# 10 faces
